<?xml version="1.0" encoding="UTF-8" standalone="no"?>
<!-- Created with Inkscape (http://www.inkscape.org/) -->

<svg
   width="1000"
   height="1000"
   viewBox="0 0 264.58333 264.58333"
   version="1.1"
   id="svg1"
   inkscape:version="1.4.2 (ebf0e940, 2025-05-08)"
   sodipodi:docname="san-rancho_house.svg"
   xmlns:inkscape="http://www.inkscape.org/namespaces/inkscape"
   xmlns:sodipodi="http://sodipodi.sourceforge.net/DTD/sodipodi-0.dtd"
   xmlns="http://www.w3.org/2000/svg"
   xmlns:svg="http://www.w3.org/2000/svg">
  <sodipodi:namedview
     id="namedview1"
     pagecolor="#ffffff"
     bordercolor="#000000"
     borderopacity="0.25"
     inkscape:showpageshadow="2"
     inkscape:pageopacity="0.0"
     inkscape:pagecheckerboard="0"
     inkscape:deskcolor="#d1d1d1"
     inkscape:document-units="mm"
     inkscape:zoom="0.29066364"
     inkscape:cx="63.647452"
     inkscape:cy="572.82707"
     inkscape:window-width="1424"
     inkscape:window-height="584"
     inkscape:window-x="0"
     inkscape:window-y="38"
     inkscape:window-maximized="0"
     inkscape:current-layer="layer1" />
  <defs
     id="defs1" />
  <g
     inkscape:label="Layer 1"
     inkscape:groupmode="layer"
     id="layer1">
    <path
       style="font-size:46.5667px;line-height:1.25;font-family:'Gujarati Sangam MN';-inkscape-font-specification:'Gujarati Sangam MN, Normal';fill:#000000;stroke:#000000;stroke-width:2.92175;stroke-dasharray:none;stroke-opacity:1;paint-order:markers fill stroke"
       d="m 33.973799,202.00578 c -10.086796,-0.38508 -12.46847,-0.69679 -12.46847,-1.63253 0,-0.96651 2.101209,-1.12093 12.782994,-0.93921 l 12.782956,0.21738 -0.496634,-3.10582 c -0.537834,-3.36361 -0.684957,-22.38011 -0.530205,-38.04948 0.115144,-11.65217 0.397005,-21.45338 0.809265,-21.59084 1.484497,-0.49493 -1.675923,-3.3486 -3.708464,-3.3486 -1.192349,0 -2.34308,0.85016 -3.266405,2.41324 -1.449721,2.45415 -3.491921,3.25972 -3.491921,1.37734 0,-0.56975 1.008488,-2.24395 2.241113,-3.72041 2.703448,-3.2383 5.786131,-3.53548 8.66072,-0.83494 l 1.968829,1.84964 1.968828,-1.84964 c 2.509618,-2.35763 5.618969,-2.35763 8.128589,0 l 1.96883,1.84964 1.96882,-1.84964 c 2.50962,-2.35763 5.61901,-2.35763 8.12862,0 l 1.9688,1.84964 1.96882,-1.84964 c 2.50963,-2.35763 5.61901,-2.35763 8.12862,0 l 1.96884,1.84964 1.96878,-1.84964 c 1.08286,-1.0173 2.91182,-1.84961 4.06434,-1.84961 1.1525,0 2.98143,0.83231 4.06429,1.84961 l 1.96883,1.84964 1.96882,-1.84964 c 2.509626,-2.35763 5.618966,-2.35763 8.128596,0 l 1.96882,1.84964 2.01103,-1.88931 c 2.38667,-2.2421 2.62974,-5.62605 0.54001,-7.51726 -2.15826,-1.95317 -3.88638,-1.63605 -5.89591,1.08195 -0.9813,1.32728 -2.10147,2.41328 -2.48927,2.41328 -0.38776,0 -1.61883,-1.086 -2.73567,-2.41328 -1.116846,-1.32731 -2.711556,-2.41326 -3.543846,-2.41326 -0.8323,0 -2.31614,1.08595 -3.29745,2.41326 -0.9813,1.32728 -2.10148,2.41328 -2.48928,2.41328 -0.38777,0 -1.61883,-1.086 -2.73567,-2.41328 -2.57273,-3.05748 -4.58081,-3.05748 -6.84129,0 -0.98131,1.32728 -2.10149,2.41328 -2.48927,2.41328 -0.3878,0 -1.61884,-1.086 -2.73568,-2.41328 -1.11685,-1.32731 -2.7116,-2.41326 -3.54389,-2.41326 -0.83225,0 -2.3161,1.08595 -3.29744,2.41326 -0.9813,1.32728 -2.10144,2.41328 -2.48924,2.41328 -0.38779,0 -1.61887,-1.086 -2.73568,-2.41328 -1.11685,-1.32731 -2.71159,-2.41326 -3.54388,-2.41326 -0.83229,0 -2.316137,1.08595 -3.297438,2.41326 -0.981304,1.32728 -2.101484,2.41328 -2.489276,2.41328 -0.387759,0 -1.618838,-1.086 -2.735682,-2.41328 -1.116844,-1.32731 -2.711557,-2.41326 -3.543847,-2.41326 -0.83229,0 -2.316135,1.08595 -3.297439,2.41326 -1.643889,2.22346 -3.894903,3.25918 -3.894903,1.79212 0,-0.34146 1.112347,-1.9706 2.471819,-3.61988 2.998549,-3.63777 6.23475,-4.01831 9.174224,-1.07884 l 1.91989,1.91989 1.803627,-1.91989 c 2.352285,-2.50392 5.838815,-2.50392 8.342725,0 l 1.91989,1.91989 1.80363,-1.91989 c 2.35229,-2.50392 5.83884,-2.50392 8.34273,0 l 1.91989,1.91989 1.80366,-1.91989 c 2.35229,-2.50392 5.8388,-2.50392 8.34268,0 l 1.9199,1.91989 1.80367,-1.91989 c 2.35229,-2.50392 5.8388,-2.50392 8.342706,0 l 1.91988,1.91989 1.86454,-1.99429 c 1.52573,-1.63193 2.40999,-1.9219 4.86679,-1.59611 l 3.00231,0.39795 -0.51351,-14.75641 -0.51347,-14.756451 1.93547,-0.4506 c 1.06456,-0.24809 5.55538,-0.54036 9.97969,-0.65014 l 8.04415,-0.19945 v -6.03317 -6.033112 l -5.08138,-0.241094 c -6.75101,-0.319868 -6.37178,-2.079296 0.51984,-2.411856 l 4.96377,-0.239564 v -4.788101 c 0,-3.719827 0.2691,-4.788145 1.20661,-4.788145 0.93987,0 1.2066,1.078071 1.2066,4.875791 v 4.875806 l 3.60961,-0.54129 c 4.29803,-0.644548 8.29188,0.12496 7.05723,1.35951 -0.45524,0.455248 -3.04153,1.02848 -5.74728,1.273798 l -4.91956,0.446107 v 5.99449 5.99453 l 9.61204,-0.24809 c 5.28661,-0.13678 9.8686,0.009 10.18219,0.32195 0.31376,0.31364 0.48696,9.648461 0.38525,20.744161 l -0.18488,20.174 1.95563,-1.28137 c 2.17729,-1.42656 4.06677,-1.03799 6.76915,1.39219 l 1.77135,1.59298 2.54344,-2.14018 c 2.81424,-2.36803 4.73534,-2.23922 7.75144,0.51981 l 1.77137,1.62037 2.54343,-2.14018 c 2.81425,-2.36803 4.73533,-2.23922 7.75149,0.51981 l 1.77136,1.62037 2.5434,-2.14018 c 2.81425,-2.36803 4.73536,-2.23922 7.75149,0.51981 l 1.77134,1.62037 2.54343,-2.14018 c 2.81425,-2.36803 4.73535,-2.23922 7.75146,0.51981 l 1.77134,1.62037 2.54345,-2.14018 c 3.01566,-2.53749 4.95719,-2.25229 8.19225,1.20341 2.04689,2.18651 2.94614,4.75091 1.66597,4.75091 -0.30037,0 -1.72824,-1.29046 -3.17294,-2.86773 -2.96452,-3.23649 -4.49772,-3.01762 -7.39816,1.05616 -1.485,2.08571 -1.59295,3.97077 -1.86589,32.58053 l -0.28971,30.36672 5.63094,-0.0452 c 3.09696,-0.0242 9.43175,-0.34023 14.07727,-0.70043 8.72543,-0.67687 11.48743,-0.29188 9.50272,1.32459 -2.40752,1.96089 -35.9632,2.83402 -115.6857,3.0098 -25.1665,0.0556 -49.540586,0.0374 -67.200526,-0.0374 -13.541672,-0.0568 -23.13558,-0.14624 -26.111829,-0.25933 z m 176.228551,-3.03081 c 0.52859,-0.52861 1.01185,-11.93839 1.31905,-31.14194 l 0.48485,-30.30768 -18.42867,0.43681 c -22.33511,0.52935 -88.31993,1.18718 -121.304576,1.20931 l -24.043092,0.015 0.312736,29.96453 0.312736,29.96452 2.011065,0.56198 c 3.351154,0.93648 158.380291,0.25174 159.335801,-0.7037 z m -92.20909,-0.48237 c -0.21652,-0.5645 -0.29588,-8.61193 -0.17597,-17.88328 l 0.21789,-16.85689 3.52256,-1.94254 c 5.32474,-2.93624 16.27701,-3.26237 23.42541,-0.6975 l 5.22869,1.87607 0.21617,18.26523 c 0.18831,15.8947 0.0576,18.26521 -1.00551,18.26521 -1.05479,0 -1.22172,-2.36179 -1.22172,-17.28418 v -17.28418 l -3.01656,-1.35995 c -2.15134,-0.96988 -5.2085,-1.35997 -10.65853,-1.35997 -5.45006,0 -8.5072,0.39009 -10.65853,1.35997 l -3.01658,1.35995 v 16.01176 c 0,8.80646 -0.2196,16.58433 -0.48825,17.28417 -0.58814,1.5327 -1.82623,1.66128 -2.36929,0.24597 z M 68.223764,180.88667 c -0.59131,-1.85223 -1.07574,-19.79671 -0.55622,-20.60557 0.64884,-1.0102 19.8893,-2.14006 20.46908,-1.20195 0.8042,1.30122 1.58485,20.88931 0.84971,21.32067 -0.39294,0.23045 -5.14794,0.67652 -10.56672,0.99101 -7.9005,0.45854 -9.92036,0.35852 -10.19585,-0.50416 z m 12.63268,-2.27161 6.25963,-0.0117 -0.53752,-8.64748 c -0.29555,-4.7561 -0.57858,-8.68138 -0.62871,-8.72284 -0.0502,-0.0417 -3.62054,0.0921 -7.93425,0.29703 l -7.84303,0.37259 v 8.21639 c 0,4.519 0.26222,8.47861 0.58285,8.79919 0.32064,0.3207 1.31603,0.38591 2.21214,0.14507 0.89611,-0.24108 4.44611,-0.44271 7.88889,-0.44873 z m 94.442386,1.81823 c -0.20414,-0.34231 -0.50235,-5.32846 -0.66273,-11.08001 l -0.29144,-10.45739 9.42248,-0.70068 c 5.18239,-0.38551 9.92405,-0.50822 10.53701,-0.27302 0.82502,0.31653 1.26224,3.08761 1.68353,10.67028 0.3131,5.63346 0.27734,10.50703 -0.0795,10.83015 -0.91157,0.82564 -20.15693,1.76941 -20.60919,1.01067 z m 18.07142,-11.48222 c -0.15426,-4.64553 -0.33612,-8.50764 -0.4043,-8.58255 -0.0683,-0.0748 -3.75757,0.0638 -8.19856,0.30865 l -8.07455,0.4449 0.28525,7.7354 c 0.1571,4.25444 0.39606,8.09737 0.53139,8.5398 0.15326,0.50137 3.24002,0.65288 8.19349,0.4021 l 7.94743,-0.4021 z M 58.508509,135.16555 c -0.800809,-0.88485 -2.292111,-1.60882 -3.314037,-1.60882 -1.034778,0 -2.239566,0.71285 -2.719085,1.60882 -0.809643,1.5128 -0.611757,1.60884 3.314039,1.60884 4.124088,0 4.157288,-0.0212 2.719083,-1.60884 z m 12.468465,0.96533 c 0,-2.66415 -5.1155,-3.43148 -6.43534,-0.96533 -0.80219,1.49891 -0.61176,1.60884 2.78716,1.60884 2.00649,0 3.64818,-0.28944 3.64818,-0.64351 z m 12.06625,0 c 0,-2.66415 -5.1155,-3.43148 -6.43535,-0.96533 -0.80219,1.49891 -0.61176,1.60884 2.78717,1.60884 2.00648,0 3.64818,-0.28944 3.64818,-0.64351 z m 12.06625,0 c 0,-1.22104 -1.93564,-2.57415 -3.68228,-2.57415 -1.86896,0 -3.89532,1.80726 -3.01422,2.68834 0.7575,0.75752 6.6965,0.65623 6.6965,-0.11436 z m 10.814356,0.14741 c 1.81093,-0.69489 0.0476,-2.72148 -2.36799,-2.72148 -1.91844,0 -3.971226,1.79374 -3.07662,2.68834 0.6672,0.66722 3.74346,0.68595 5.44461,0.0331 z m 7.68724,-1.11266 c 0,-0.44239 -0.15977,-0.80443 -0.35475,-0.80443 -0.19518,0 -0.57846,0.36224 -0.8519,0.80443 -0.27356,0.44247 -0.11369,0.80444 0.35473,0.80444 0.46854,0 0.85192,-0.36182 0.85192,-0.80444 z m 4.8265,-0.4021 c -0.55079,-0.66364 -1.3191,-1.20665 -1.70734,-1.20665 -0.38827,0 -0.70592,0.54301 -0.70592,1.20665 0,0.69351 0.72596,1.20662 1.70734,1.20662 1.42642,0 1.54254,-0.19853 0.70592,-1.20662 z m 34.07835,-2.52557 c 0.28147,-2.05264 0.51154,-11.68487 0.51154,-21.40489 V 93.160319 l -15.88721,0.52543 c -8.73798,0.28914 -17.2887,0.72983 -19.00163,0.97958 l -3.11441,0.45405 0.5058,8.560221 c 0.27837,4.70815 0.57237,12.81362 0.65367,18.01217 0.0997,6.36202 0.44291,9.45187 1.05038,9.45187 0.49639,0 1.94292,1.08596 3.21454,2.41326 l 2.31204,2.41327 h 14.62189 14.62183 z m 10.96898,2.97337 c 0,-0.41732 -0.79767,-1.3175 -1.77263,-2.00038 -1.49192,-1.04501 -2.02634,-1.07318 -3.37469,-0.17785 -2.94337,1.95432 -2.45475,2.93709 1.46041,2.93709 2.02779,0 3.68691,-0.34149 3.68691,-0.75884 z m 12.06624,0 c 0,-0.41732 -0.79768,-1.3175 -1.77263,-2.00038 -1.49191,-1.04501 -2.02633,-1.07318 -3.37468,-0.17785 -2.94337,1.95432 -2.45472,2.93709 1.46039,2.93709 2.02781,0 3.68692,-0.34149 3.68692,-0.75884 z m 11.16126,-0.0725 c 1.00894,-0.0212 0.86787,-0.39257 -0.61828,-1.63026 -1.68072,-1.39965 -2.13522,-1.46421 -3.57578,-0.5077 -2.856,1.89631 -2.71887,3.28583 0.26531,2.68901 1.44181,-0.28822 3.20974,-0.53637 3.92868,-0.55105 z m 12.57171,-0.77333 c -1.27022,-2.05526 -3.47339,-2.39405 -5.35779,-0.82385 l -1.88466,1.57042 3.86848,0.0242 c 2.36618,0.015 3.67645,-0.28428 3.37397,-0.77334 z m 12.06625,0 c -1.27022,-2.05526 -3.47339,-2.39405 -5.35779,-0.82385 l -1.88462,1.57042 3.86844,0.0242 c 2.36621,0.015 3.67643,-0.28428 3.37397,-0.77334 z m -55.08941,-7.45451 c 0,-0.27972 0.26426,-1.04135 1.13838,-2.45551 2.68662,-4.34698 9.6579,-5.20805 12.44619,-1.84835 1.18242,1.42473 3.29237,1.75342 3.29237,0.51288 0,-0.43105 0.99546,-1.29244 2.21214,-1.91418 2.41226,-1.23273 4.79868,-0.72309 6.56177,1.4013 1.18239,1.42473 3.29234,1.75342 3.29234,0.51288 0,-0.43105 0.99546,-1.29244 2.21212,-1.91418 2.41231,-1.23273 4.79868,-0.72309 6.56179,1.4013 1.18238,1.42473 3.29234,1.75342 3.29234,0.51288 0,-0.43105 0.99548,-1.29244 2.21216,-1.91418 2.41226,-1.23273 4.79862,-0.72309 6.56174,1.4013 1.18239,1.42473 3.29235,1.75342 3.29235,0.51288 0,-1.38428 4.30755,-3.08864 6.09873,-2.41311 1.77271,0.6686 5.96752,5.22104 5.96752,6.47625 0,1.57395 -2.19088,0.63425 -3.89487,-1.67056 -0.98133,-1.32725 -2.46518,-2.41323 -3.29743,-2.41323 -0.8323,0 -2.42705,1.08598 -3.54388,2.41323 -1.11684,1.32732 -2.3479,2.41328 -2.73568,2.41328 -0.38781,0 -1.50799,-1.08596 -2.48929,-2.41328 -0.9813,-1.32725 -2.46515,-2.41323 -3.29743,-2.41323 -0.8323,0 -2.42702,1.08598 -3.54385,2.41323 -1.11684,1.32732 -2.34788,2.41328 -2.73568,2.41328 -0.38779,0 -1.50797,-1.08596 -2.48927,-2.41328 -0.9813,-1.32725 -2.46515,-2.41323 -3.29743,-2.41323 -0.8323,0 -2.42702,1.08598 -3.54387,2.41323 -1.11684,1.32732 -2.34791,2.41328 -2.73566,2.41328 -0.38781,0 -1.50797,-1.08596 -2.48929,-2.41328 -0.9813,-1.32725 -2.46515,-2.41323 -3.29743,-2.41323 -0.8323,0 -2.42704,1.08598 -3.54388,2.41323 -1.11683,1.32732 -2.3479,2.41328 -2.73569,2.41328 -0.3878,0 -1.50793,-1.08596 -2.48924,-2.41328 -0.98135,-1.32725 -2.46518,-2.41323 -3.29744,-2.41323 -0.83229,0 -4.37448,0.37306 -5.49132,1.70025 -1.85391,2.20322 -4.19331,3.37122 -4.19331,2.11138 z"
       id="path38-3-6-2"
       sodipodi:nodetypes="csscsssssssscsscsscsscssscsscssssssssssssssssssssssssscsscsscsscsscssccccccccsscssscsssccccsscsscsscsscsscsscsssssscscssscccscsccccscccscssccsscssscssccssssssccssccsssccssccsssssccsccsccccssscsssssssssssssssssssssssssssscsccsccsssccccsssssssssssssssssscscccccsccccsssssssssssssssssssssssssssssssssss" />
  </g>
</svg>
